<?xml version="1.0" encoding="utf-8"?>
<svg viewBox="162.767 352.759 310.275 212.625" xmlns="http://www.w3.org/2000/svg">
  <g transform="matrix(9, 0, 0, 9, 117.767481, 13.189248)">
    <polygon points="16.633 45.423 20.745 51.763 22.568 58.017 29.165 57.381 22.644 51.318 22.021 47.864" style="fill: rgb(255, 255, 255);"/>
    <polygon points="29.531 46.631 28.516 47.801 32.52 57.205 34.084 56.171 37.268 55.742 39.243 51.655" style="fill: rgb(255, 255, 255);"/>
    <polygon points="29.257 43.026 29.705 46.143 39.466 51.194 39.475 51.175 35.921 44.642 31.179 41.927 30.426 40.357" style="fill: rgb(255, 255, 255);"/>
    <polygon points="16.047 44.491 22.306 47.43 27.548 47.49 19.154 39.812 12.64 39.189 9.214 43.855" style="fill: rgb(255, 255, 255);"/>
    <polygon points="28.046 48.008 22.553 47.925 23.119 51.059 29.542 57.031 32.036 57.378" style="fill: rgb(255, 255, 255);"/>
    <polygon points="22.109 58.275 20.263 51.943 15.793 45.071 8.329 44.274 5 45.297 6.068 50.269 8.825 52.325 9.094 56.229 11.206 59.089 15.431 58.126 20.821 61.187" style="fill: rgb(255, 255, 255);"/>
    <polygon points="28.181 47.404 29.199 46.231 28.728 42.954 29.988 40.08 25.544 37.73 22.7 39.815 20.256 39.917 20.002 39.893" style="fill: rgb(255, 255, 255);"/>
    <polygon points="22.555 58.534 21.308 61.355 26.831 60.296 28.776 57.934" style="fill: rgb(255, 255, 255);"/>
  </g>
</svg>