<?xml version="1.0" encoding="utf-8"?>
<svg viewBox="663.382 230.455 128.368 190.293" xmlns="http://www.w3.org/2000/svg">
  <path d="M88.0815735,57.0797043l-1.6229095-2.2480354c1.1170044-0.5139198,3.901001-2.2530403,6.6879959-7.5936241  c3.686615-7.0621719,0.7563629-11.8572769,0.6301346-12.058136l-0.3566437-0.5655136L84.664444,51.3864861l-8.7557144-16.7720909  l-0.356636,0.5655136c-0.1262283,0.2008591-3.056488,4.9959641,0.630127,12.058136  c2.7870026,5.3405838,5.5709991,7.0797043,6.6880035,7.5936241l-1.6229095,2.2480354  c-0.6131058,0.1382484-2.8501205,0.7453346-4.0963516,2.4413795c-1.3794785,1.8753662-1.3333969,4.109375,0.107193,5.1943169  c0.4718475,0.3556442,1.0388641,0.5419769,1.630928,0.5419769c0.1532745,0,0.3095551-0.0130234,0.4658356-0.0380707  c1.0258408-0.1683044,2.0096054-0.8685608,2.7679596-1.972538c1.1761169-1.7130737,1.0809402-3.9891586,1.0308533-4.5982513  l1.5107117-2.1478539l1.5107117,2.1478539c-0.0500946,0.6090927-0.1452637,2.8851776,1.0308456,4.5982513  c0.7583618,1.1039772,1.7421265,1.8042336,2.7679672,1.972538c0.7603683,0.1212158,1.5027008-0.0560989,2.0967636-0.5039062  c1.4405823-1.0849419,1.4866638-3.3189507,0.107193-5.1943169C90.9316864,57.8250389,88.6946716,57.2179527,88.0815735,57.0797043z   M91.1039352,63.532093c-0.7557297,0.5002708-2.0129242-0.0678101-2.8079758-1.2688408  c-0.7951126-1.2010269-0.8270493-2.5802536-0.0713196-3.0805244c0.7557373-0.5002747,2.0128632,0.0678062,2.8079758,1.268837  C91.8277359,61.6525955,91.8596039,63.0318222,91.1039352,63.532093z M78.2962646,60.4515648  c0.7951126-1.2010307,2.0522461-1.7691116,2.8079758-1.268837c0.7557297,0.5002708,0.7238007,1.8794975-0.071312,3.0805244  c-0.7950516,1.2010307-2.0522461,1.7691116-2.8079758,1.2688408C77.4692841,63.0318222,77.501152,61.6525955,78.2962646,60.4515648z  " transform="matrix(6.210001, 0, 0, 6.210001, 201.800013, 15.499997)" style="fill: rgb(255, 255, 255);"/>
</svg>